<svg width="407" height="122" viewBox="0 0 407 122" fill="none" xmlns="http://www.w3.org/2000/svg">
<path d="M53.7273 82.7692V96.4423C53.7273 98.9594 51.682 101 49.1591 101H9.56818C7.04524 101 5 98.9594 5 96.4423V44.7885C5 42.2713 7.04524 40.2308 9.56818 40.2308H17.1818C19.2571 40.2308 21.2919 40.4033 23.2727 40.7349M53.7273 82.7692H67.4318C69.9548 82.7692 72 80.7287 72 78.2115V58.4615C72 40.3949 58.8297 25.3972 41.5455 22.5041C39.5646 22.1726 37.5298 22 35.4545 22H27.8409C25.318 22 23.2727 24.0405 23.2727 26.5577V40.7349M53.7273 82.7692H27.8409C25.318 82.7692 23.2727 80.7287 23.2727 78.2115V40.7349M72 67.5769V59.9808C72 52.4293 65.8643 46.3077 58.2955 46.3077H52.2045C49.6816 46.3077 47.6364 44.2671 47.6364 41.75V35.6731C47.6364 28.1216 41.5006 22 33.9318 22H29.3636" stroke="black" stroke-width="9" stroke-linecap="round" stroke-linejoin="round"/>
<path d="M102.1 95V57.5H92.2V48H102.1V42.4C102.1 37.3333 103.333 33.6 105.8 31.2C108.267 28.8 112.167 27.6 117.5 27.6C118.967 27.6 120.4 27.7 121.8 27.9C123.267 28.0333 124.467 28.2333 125.4 28.5V37.5C124.8 37.3667 123.933 37.2667 122.8 37.2C121.733 37.1333 120.8 37.1 120 37.1C117.867 37.1 116.267 37.6333 115.2 38.7C114.133 39.7 113.6 41.2667 113.6 43.4V48H125.4V57.5H113.6V95H102.1ZM157.098 96C152.164 96 147.798 95 143.998 93C140.264 90.9333 137.298 88.0667 135.098 84.4C132.964 80.7333 131.898 76.4333 131.898 71.5C131.898 66.5667 132.964 62.2667 135.098 58.6C137.298 54.9333 140.264 52.1 143.998 50.1C147.798 48.0333 152.164 47 157.098 47C162.098 47 166.464 48.0333 170.198 50.1C173.931 52.1 176.864 54.9333 178.998 58.6C181.198 62.2667 182.298 66.5667 182.298 71.5C182.298 76.4333 181.231 80.7333 179.098 84.4C176.964 88.0667 173.998 90.9333 170.198 93C166.398 95 162.031 96 157.098 96ZM157.098 86.1C159.831 86.1 162.198 85.5 164.198 84.3C166.198 83.1 167.764 81.4 168.898 79.2C170.031 77 170.598 74.4333 170.598 71.5C170.598 68.5 170.031 65.9333 168.898 63.8C167.764 61.6 166.198 59.9 164.198 58.7C162.198 57.5 159.831 56.9 157.098 56.9C154.364 56.9 151.998 57.5 149.998 58.7C147.998 59.9 146.431 61.6 145.298 63.8C144.164 65.9333 143.598 68.5 143.598 71.5C143.598 74.4333 144.164 77 145.298 79.2C146.431 81.4 147.998 83.1 149.998 84.3C151.998 85.5 154.364 86.1 157.098 86.1ZM193.382 95V48H204.382V55.7C205.649 52.8333 207.382 50.7333 209.582 49.4C211.782 48.0667 214.249 47.4 216.982 47.4C217.915 47.4 218.749 47.4667 219.482 47.6C220.215 47.6667 220.782 47.8 221.182 48V58.9C220.249 58.7 219.315 58.5333 218.382 58.4C217.449 58.2667 216.515 58.2 215.582 58.2C212.515 58.2 209.949 59.4333 207.882 61.9C205.815 64.3 204.782 67.7667 204.782 72.3V95H193.382ZM249.148 114.2C245.148 114.2 241.414 113.6 237.948 112.4C234.481 111.2 231.148 109.333 227.948 106.8L231.748 98.4C234.814 100.6 237.748 102.133 240.548 103C243.348 103.933 246.014 104.4 248.548 104.4C253.214 104.4 256.881 103.2 259.548 100.8C262.214 98.4 263.548 94.8333 263.548 90.1V86.3C262.014 88.2333 259.948 89.8333 257.348 91.1C254.748 92.3667 251.681 93 248.148 93C244.214 93 240.514 92.1 237.048 90.3C233.648 88.5 230.881 85.9 228.748 82.5C226.681 79.0333 225.648 74.8667 225.648 70C225.648 65.0667 226.681 60.9 228.748 57.5C230.881 54.1 233.648 51.5 237.048 49.7C240.514 47.9 244.214 47 248.148 47C251.948 47 255.181 47.7333 257.848 49.2C260.581 50.6 262.681 52.3333 264.148 54.4V48H275.048V88.2C275.048 93.8 273.981 98.5333 271.848 102.4C269.781 106.267 266.814 109.2 262.948 111.2C259.148 113.2 254.548 114.2 249.148 114.2ZM250.748 83.4C253.214 83.4 255.448 82.9 257.448 81.9C259.448 80.8333 261.014 79.3 262.148 77.3C263.348 75.3 263.948 72.8667 263.948 70C263.948 67.0667 263.348 64.6333 262.148 62.7C261.014 60.7 259.448 59.2 257.448 58.2C255.448 57.1333 253.214 56.6 250.748 56.6C248.281 56.6 246.014 57.1333 243.948 58.2C241.948 59.2 240.348 60.7 239.148 62.7C238.014 64.6333 237.448 67.0667 237.448 70C237.448 72.8667 238.014 75.3 239.148 77.3C240.348 79.3 241.948 80.8333 243.948 81.9C246.014 82.9 248.281 83.4 250.748 83.4ZM311.699 96C306.899 96 302.566 95.0667 298.699 93.2C294.833 91.3333 291.733 88.6 289.399 85C287.133 81.3333 285.999 76.8333 285.999 71.5C285.999 66.5 287.066 62.1667 289.199 58.5C291.399 54.8333 294.299 52 297.899 50C301.566 48 305.666 47 310.199 47C314.866 47 318.933 47.9 322.399 49.7C325.866 51.4333 328.566 53.8333 330.499 56.9C332.433 59.9667 333.399 63.4667 333.399 67.4C333.399 68.5333 333.233 69.8 332.899 71.2C332.566 72.6 332.133 73.7333 331.599 74.6H297.699C298.033 77.2 298.833 79.4 300.099 81.2C301.433 82.9333 303.166 84.2667 305.299 85.2C307.433 86.0667 309.933 86.5 312.799 86.5C315.733 86.5 318.399 86.0667 320.799 85.2C323.199 84.2667 325.466 83.0333 327.599 81.5L331.399 89.7C328.666 91.7667 325.633 93.3333 322.299 94.4C319.033 95.4667 315.499 96 311.699 96ZM297.699 66.6H321.599C321.666 66.4 321.699 66.2333 321.699 66.1C321.699 65.9 321.699 65.7333 321.699 65.6C321.699 63.6667 321.299 62 320.499 60.6C319.699 59.2 318.466 58.1333 316.799 57.4C315.199 56.6 313.099 56.2 310.499 56.2C308.366 56.2 306.399 56.6333 304.599 57.5C302.866 58.3 301.399 59.4667 300.199 61C298.999 62.5333 298.166 64.4 297.699 66.6ZM364.456 96C360.256 96 356.456 95.0333 353.056 93.1C349.656 91.1 346.956 88.2667 344.956 84.6C342.956 80.9333 341.956 76.5667 341.956 71.5C341.956 66.4333 342.956 62.0667 344.956 58.4C346.956 54.7333 349.656 51.9333 353.056 50C356.456 48 360.256 47 364.456 47C367.99 47 371.056 47.6667 373.656 49C376.256 50.2667 378.323 51.9333 379.856 54V28.2H391.356V95H380.456V88.2C378.99 90.5333 376.89 92.4333 374.156 93.9C371.423 95.3 368.19 96 364.456 96ZM367.056 86.1C369.656 86.1 371.956 85.5 373.956 84.3C375.956 83.1 377.523 81.4 378.656 79.2C379.79 77 380.356 74.4333 380.356 71.5C380.356 68.5 379.79 65.9333 378.656 63.8C377.523 61.6 375.956 59.9 373.956 58.7C371.956 57.5 369.656 56.9 367.056 56.9C364.456 56.9 362.123 57.5 360.056 58.7C358.056 59.9 356.49 61.6 355.356 63.8C354.29 65.9333 353.756 68.5 353.756 71.5C353.756 74.4333 354.29 77 355.356 79.2C356.49 81.4 358.056 83.1 360.056 84.3C362.123 85.5 364.456 86.1 367.056 86.1Z" fill="black"/>
</svg>
