<svg width="437" height="122" viewBox="0 0 437 122" fill="none" xmlns="http://www.w3.org/2000/svg">
<path d="M132.1 95V57.5H122.2V48H132.1V42.4C132.1 37.3333 133.333 33.6 135.8 31.2C138.267 28.8 142.167 27.6 147.5 27.6C148.967 27.6 150.4 27.7 151.8 27.9C153.267 28.0333 154.467 28.2333 155.4 28.5V37.5C154.8 37.3667 153.933 37.2667 152.8 37.2C151.733 37.1333 150.8 37.1 150 37.1C147.867 37.1 146.267 37.6333 145.2 38.7C144.133 39.7 143.6 41.2667 143.6 43.4V48H155.4V57.5H143.6V95H132.1ZM187.098 96C182.164 96 177.798 95 173.998 93C170.264 90.9333 167.298 88.0667 165.098 84.4C162.964 80.7333 161.898 76.4333 161.898 71.5C161.898 66.5667 162.964 62.2667 165.098 58.6C167.298 54.9333 170.264 52.1 173.998 50.1C177.798 48.0333 182.164 47 187.098 47C192.098 47 196.464 48.0333 200.198 50.1C203.931 52.1 206.864 54.9333 208.998 58.6C211.198 62.2667 212.298 66.5667 212.298 71.5C212.298 76.4333 211.231 80.7333 209.098 84.4C206.964 88.0667 203.998 90.9333 200.198 93C196.398 95 192.031 96 187.098 96ZM187.098 86.1C189.831 86.1 192.198 85.5 194.198 84.3C196.198 83.1 197.764 81.4 198.898 79.2C200.031 77 200.598 74.4333 200.598 71.5C200.598 68.5 200.031 65.9333 198.898 63.8C197.764 61.6 196.198 59.9 194.198 58.7C192.198 57.5 189.831 56.9 187.098 56.9C184.364 56.9 181.998 57.5 179.998 58.7C177.998 59.9 176.431 61.6 175.298 63.8C174.164 65.9333 173.598 68.5 173.598 71.5C173.598 74.4333 174.164 77 175.298 79.2C176.431 81.4 177.998 83.1 179.998 84.3C181.998 85.5 184.364 86.1 187.098 86.1ZM223.382 95V48H234.382V55.7C235.649 52.8333 237.382 50.7333 239.582 49.4C241.782 48.0667 244.249 47.4 246.982 47.4C247.915 47.4 248.749 47.4667 249.482 47.6C250.215 47.6667 250.782 47.8 251.182 48V58.9C250.249 58.7 249.315 58.5333 248.382 58.4C247.449 58.2667 246.515 58.2 245.582 58.2C242.515 58.2 239.949 59.4333 237.882 61.9C235.815 64.3 234.782 67.7667 234.782 72.3V95H223.382ZM279.148 114.2C275.148 114.2 271.414 113.6 267.948 112.4C264.481 111.2 261.148 109.333 257.948 106.8L261.748 98.4C264.814 100.6 267.748 102.133 270.548 103C273.348 103.933 276.014 104.4 278.548 104.4C283.214 104.4 286.881 103.2 289.548 100.8C292.214 98.4 293.548 94.8333 293.548 90.1V86.3C292.014 88.2333 289.948 89.8333 287.348 91.1C284.748 92.3667 281.681 93 278.148 93C274.214 93 270.514 92.1 267.048 90.3C263.648 88.5 260.881 85.9 258.748 82.5C256.681 79.0333 255.648 74.8667 255.648 70C255.648 65.0667 256.681 60.9 258.748 57.5C260.881 54.1 263.648 51.5 267.048 49.7C270.514 47.9 274.214 47 278.148 47C281.948 47 285.181 47.7333 287.848 49.2C290.581 50.6 292.681 52.3333 294.148 54.4V48H305.048V88.2C305.048 93.8 303.981 98.5333 301.848 102.4C299.781 106.267 296.814 109.2 292.948 111.2C289.148 113.2 284.548 114.2 279.148 114.2ZM280.748 83.4C283.214 83.4 285.448 82.9 287.448 81.9C289.448 80.8333 291.014 79.3 292.148 77.3C293.348 75.3 293.948 72.8667 293.948 70C293.948 67.0667 293.348 64.6333 292.148 62.7C291.014 60.7 289.448 59.2 287.448 58.2C285.448 57.1333 283.214 56.6 280.748 56.6C278.281 56.6 276.014 57.1333 273.948 58.2C271.948 59.2 270.348 60.7 269.148 62.7C268.014 64.6333 267.448 67.0667 267.448 70C267.448 72.8667 268.014 75.3 269.148 77.3C270.348 79.3 271.948 80.8333 273.948 81.9C276.014 82.9 278.281 83.4 280.748 83.4ZM341.699 96C336.899 96 332.566 95.0667 328.699 93.2C324.833 91.3333 321.733 88.6 319.399 85C317.133 81.3333 315.999 76.8333 315.999 71.5C315.999 66.5 317.066 62.1667 319.199 58.5C321.399 54.8333 324.299 52 327.899 50C331.566 48 335.666 47 340.199 47C344.866 47 348.933 47.9 352.399 49.7C355.866 51.4333 358.566 53.8333 360.499 56.9C362.433 59.9667 363.399 63.4667 363.399 67.4C363.399 68.5333 363.233 69.8 362.899 71.2C362.566 72.6 362.133 73.7333 361.599 74.6H327.699C328.033 77.2 328.833 79.4 330.099 81.2C331.433 82.9333 333.166 84.2667 335.299 85.2C337.433 86.0667 339.933 86.5 342.799 86.5C345.733 86.5 348.399 86.0667 350.799 85.2C353.199 84.2667 355.466 83.0333 357.599 81.5L361.399 89.7C358.666 91.7667 355.633 93.3333 352.299 94.4C349.033 95.4667 345.499 96 341.699 96ZM327.699 66.6H351.599C351.666 66.4 351.699 66.2333 351.699 66.1C351.699 65.9 351.699 65.7333 351.699 65.6C351.699 63.6667 351.299 62 350.499 60.6C349.699 59.2 348.466 58.1333 346.799 57.4C345.199 56.6 343.099 56.2 340.499 56.2C338.366 56.2 336.399 56.6333 334.599 57.5C332.866 58.3 331.399 59.4667 330.199 61C328.999 62.5333 328.166 64.4 327.699 66.6ZM394.456 96C390.256 96 386.456 95.0333 383.056 93.1C379.656 91.1 376.956 88.2667 374.956 84.6C372.956 80.9333 371.956 76.5667 371.956 71.5C371.956 66.4333 372.956 62.0667 374.956 58.4C376.956 54.7333 379.656 51.9333 383.056 50C386.456 48 390.256 47 394.456 47C397.99 47 401.056 47.6667 403.656 49C406.256 50.2667 408.323 51.9333 409.856 54V28.2H421.356V95H410.456V88.2C408.99 90.5333 406.89 92.4333 404.156 93.9C401.423 95.3 398.19 96 394.456 96ZM397.056 86.1C399.656 86.1 401.956 85.5 403.956 84.3C405.956 83.1 407.523 81.4 408.656 79.2C409.79 77 410.356 74.4333 410.356 71.5C410.356 68.5 409.79 65.9333 408.656 63.8C407.523 61.6 405.956 59.9 403.956 58.7C401.956 57.5 399.656 56.9 397.056 56.9C394.456 56.9 392.123 57.5 390.056 58.7C388.056 59.9 386.49 61.6 385.356 63.8C384.29 65.9333 383.756 68.5 383.756 71.5C383.756 74.4333 384.29 77 385.356 79.2C386.49 81.4 388.056 83.1 390.056 84.3C392.123 85.5 394.456 86.1 397.056 86.1Z" fill="white"/>
<path d="M65.6911 60.7422L23.3238 103.109C21.3108 105.122 18.5806 106.253 15.7338 106.253C12.8871 106.253 10.1569 105.122 8.14387 103.109C6.13088 101.096 5 98.3663 5 95.5195C5 92.6727 6.13088 89.9425 8.14387 87.9295L50.5111 45.5623" stroke="white" stroke-width="10" stroke-linecap="round" stroke-linejoin="round"/>
<path d="M80.8711 75.9223L101.111 55.6824" stroke="white" stroke-width="10" stroke-linecap="round" stroke-linejoin="round"/>
<path d="M98.5808 58.2123L88.896 48.5275C86.998 46.63 85.9315 44.0564 85.9309 41.3726V35.4423L74.4953 24.0068C68.8511 18.3658 61.2129 15.1739 53.2333 15.1214L35.3311 15L39.9862 19.1492C43.2927 22.0809 45.9403 25.6801 47.7544 29.7096C49.5686 33.7391 50.5081 38.1073 50.511 42.5263V50.6223L60.631 60.7422H66.5613C69.245 60.7428 71.8187 61.8094 73.7161 63.7074L83.4009 73.3922" stroke="white" stroke-width="10" stroke-linecap="round" stroke-linejoin="round"/>
</svg>
