<svg width="107" height="102" viewBox="0 0 107 102" fill="none" xmlns="http://www.w3.org/2000/svg">
<path d="M65.6911 50.7422L23.3238 93.1094C21.3108 95.1224 18.5806 96.2533 15.7338 96.2533C12.8871 96.2533 10.1569 95.1224 8.14387 93.1094C6.13088 91.0965 5 88.3663 5 85.5195C5 82.6727 6.13088 79.9425 8.14387 77.9295L50.5111 35.5623" stroke="black" stroke-width="10" stroke-linecap="round" stroke-linejoin="round"/>
<path d="M80.8711 65.9223L101.111 45.6824" stroke="black" stroke-width="10" stroke-linecap="round" stroke-linejoin="round"/>
<path d="M98.5808 48.2123L88.896 38.5275C86.998 36.63 85.9315 34.0564 85.9309 31.3726V25.4423L74.4953 14.0068C68.8511 8.36582 61.2129 5.17385 53.2333 5.12144L35.3311 5L39.9862 9.14919C43.2927 12.0809 45.9403 15.6801 47.7544 19.7096C49.5686 23.7391 50.5081 28.1073 50.511 32.5263V40.6223L60.631 50.7422H66.5613C69.245 50.7428 71.8187 51.8094 73.7161 53.7074L83.4009 63.3922" stroke="black" stroke-width="10" stroke-linecap="round" stroke-linejoin="round"/>
</svg>
