<svg width="77" height="89" viewBox="0 0 77 89" fill="none" xmlns="http://www.w3.org/2000/svg">
<path d="M53.7273 65.7692V79.4423C53.7273 81.9594 51.682 84 49.1591 84H9.56818C7.04524 84 5 81.9594 5 79.4423V27.7885C5 25.2713 7.04524 23.2308 9.56818 23.2308H17.1818C19.2571 23.2308 21.2919 23.4033 23.2727 23.7349M53.7273 65.7692H67.4318C69.9548 65.7692 72 63.7287 72 61.2115V41.4615C72 23.3949 58.8297 8.39722 41.5455 5.50413C39.5646 5.17258 37.5298 5 35.4545 5H27.8409C25.318 5 23.2727 7.04055 23.2727 9.55769V23.7349M53.7273 65.7692H27.8409C25.318 65.7692 23.2727 63.7287 23.2727 61.2115V23.7349M72 50.5769V42.9808C72 35.4293 65.8643 29.3077 58.2955 29.3077H52.2045C49.6816 29.3077 47.6364 27.2671 47.6364 24.75V18.6731C47.6364 11.1216 41.5006 5 33.9318 5H29.3636" stroke="white" stroke-width="9" stroke-linecap="round" stroke-linejoin="round"/>
</svg>
